<?xml version="1.0" standalone="no"?><!-- Generator: Gravit.io --><svg xmlns="http://www.w3.org/2000/svg" xmlns:xlink="http://www.w3.org/1999/xlink" style="isolation:isolate" viewBox="-77.872 42.119 384.357 75.212" width="384.357" height="75.212"><path d=" M 103.246 97.625 Q 99.636 97.625 96.251 96.497 L 96.251 111.239 Q 96.251 113.495 96.778 114.548 Q 97.304 115.601 98.733 116.015 Q 100.162 116.428 103.246 116.428 Q 103.396 116.428 103.396 116.88 Q 103.396 117.331 103.246 117.331 Q 100.538 117.331 99.034 117.256 L 93.167 117.181 L 88.88 117.256 Q 87.752 117.331 85.797 117.331 Q 85.571 117.331 85.571 116.88 Q 85.571 116.428 85.797 116.428 Q 87.677 116.428 88.58 116.015 Q 89.482 115.601 89.821 114.548 Q 90.159 113.495 90.159 111.239 L 90.159 76.265 Q 90.159 73.783 89.595 72.655 Q 89.031 71.527 87.677 71.527 Q 86.398 71.527 84.067 72.58 L 83.916 72.58 Q 83.616 72.58 83.465 72.241 Q 83.315 71.903 83.465 71.753 L 93.393 67.014 Q 93.544 66.939 93.844 66.939 Q 94.672 66.939 95.349 68.33 Q 96.026 69.722 96.176 72.129 Q 101.967 66.638 107.909 66.638 Q 111.068 66.638 113.776 68.293 Q 116.483 69.947 118.1 73.106 Q 119.717 76.265 119.717 80.477 Q 119.717 86.419 117.198 90.255 Q 114.678 94.09 110.917 95.858 Q 107.157 97.625 103.246 97.625 Z  M 103.547 70.399 Q 99.711 70.399 96.251 73.633 L 96.251 73.783 L 96.251 82.771 L 96.251 91.759 Q 98.056 93.714 100.049 94.767 Q 102.042 95.82 104.901 95.82 Q 108.661 95.82 110.842 92.549 Q 113.023 89.277 113.023 82.809 Q 113.023 76.867 110.316 73.633 Q 107.608 70.399 103.547 70.399 Z " fill-rule="evenodd" fill="rgb(0,0,0)"/><path d=" M 123.982 96.648 L 123.982 96.648 Q 123.756 96.648 123.756 96.196 L 123.756 96.196 L 123.756 96.196 Q 123.756 95.745 123.982 95.745 L 123.982 95.745 L 123.982 95.745 Q 126.464 95.745 127.367 94.655 L 127.367 94.655 L 127.367 94.655 Q 128.269 93.564 128.269 90.556 L 128.269 90.556 L 128.269 52.122 L 128.269 52.122 Q 128.269 49.49 127.78 48.324 L 127.78 48.324 L 127.78 48.324 Q 127.291 47.158 126.013 47.158 L 126.013 47.158 L 126.013 47.158 Q 124.885 47.158 123.004 48.061 L 123.004 48.061 L 122.929 48.061 L 122.929 48.061 Q 122.628 48.061 122.478 47.685 L 122.478 47.685 L 122.478 47.685 Q 122.327 47.309 122.478 47.158 L 122.478 47.158 L 133.083 42.194 L 133.384 42.119 L 133.384 42.119 Q 133.684 42.119 134.098 42.42 L 134.098 42.42 L 134.098 42.42 Q 134.512 42.721 134.512 42.946 L 134.512 42.946 L 134.512 90.556 L 134.512 90.556 Q 134.512 93.639 135.339 94.692 L 135.339 94.692 L 135.339 94.692 Q 136.166 95.745 138.724 95.745 L 138.724 95.745 L 138.724 95.745 Q 140.949 95.745 140.949 96.196 L 140.949 96.196 L 140.949 96.196 Q 138.949 96.648 138.724 96.648 L 138.724 96.648 L 138.724 96.648 Q 136.919 96.648 135.79 96.572 L 135.79 96.572 L 131.353 96.497 L 126.991 96.572 L 126.991 96.572 Q 125.862 96.648 123.982 96.648 L 123.982 96.648 Z " fill="rgb(0,0,0)"/><path d=" M 151.359 58.966 L 151.359 58.966 Q 149.404 58.966 148.313 57.914 L 148.313 57.914 L 148.313 57.914 Q 147.223 56.861 147.223 54.905 L 147.223 54.905 L 147.223 54.905 Q 147.223 53.025 148.313 52.009 L 148.313 52.009 L 148.313 52.009 Q 149.404 50.994 151.359 50.994 L 151.359 50.994 L 151.359 50.994 Q 153.24 50.994 154.293 52.009 L 154.293 52.009 L 154.293 52.009 Q 155.345 53.025 155.345 54.905 L 155.345 54.905 L 155.345 54.905 Q 155.345 56.861 154.33 57.914 L 154.33 57.914 L 154.33 57.914 Q 153.315 58.966 151.359 58.966 L 151.359 58.966 Z " fill="rgb(0,0,0)"/><path d=" M 145.44 96.648 L 145.44 96.648 Q 145.214 96.648 145.214 96.196 L 145.214 96.196 L 145.214 96.196 Q 145.214 95.745 145.44 95.745 L 145.44 95.745 L 145.44 95.745 Q 147.997 95.745 148.824 94.692 L 148.824 94.692 L 148.824 94.692 Q 149.652 93.639 149.652 90.556 L 149.652 90.556 L 149.652 76.867 L 149.652 76.867 Q 149.652 74.31 149.125 73.144 L 149.125 73.144 L 149.125 73.144 Q 148.599 71.978 147.32 71.978 L 147.32 71.978 L 147.32 71.978 Q 146.192 71.978 144.387 72.881 L 144.387 72.881 L 144.312 72.881 L 144.312 72.881 Q 144.011 72.881 143.86 72.505 L 143.86 72.505 L 143.86 72.505 Q 143.71 72.129 143.936 71.978 L 143.936 71.978 L 154.766 66.939 L 154.992 66.864 L 154.992 66.864 Q 155.293 66.864 155.631 67.202 L 155.631 67.202 L 155.631 67.202 Q 155.969 67.541 155.969 67.766 L 155.969 67.766 L 155.969 69.346 L 155.969 69.346 Q 155.819 72.505 155.819 76.792 L 155.819 76.792 L 155.819 90.556 L 155.819 90.556 Q 155.819 93.639 156.684 94.692 L 156.684 94.692 L 156.684 94.692 Q 157.549 95.745 160.106 95.745 L 160.106 95.745 L 160.106 95.745 Q 160.332 95.745 160.332 96.196 L 160.332 96.196 L 160.332 96.196 Q 160.332 96.648 160.106 96.648 L 160.106 96.648 L 160.106 96.648 Q 158.226 96.648 157.098 96.572 L 157.098 96.572 L 152.735 96.497 L 148.373 96.572 L 148.373 96.572 Q 147.32 96.648 145.44 96.648 L 145.44 96.648 Z " fill="rgb(0,0,0)"/><path d=" M 189.492 91.985 L 189.642 91.909 Q 189.793 91.909 189.981 92.21 Q 190.169 92.511 190.018 92.661 Q 187.235 95.219 184.453 96.384 Q 181.67 97.55 178.436 97.55 Q 173.848 97.55 170.501 95.519 Q 167.154 93.489 165.386 90.179 Q 163.619 86.87 163.619 83.034 Q 163.619 78.597 165.8 74.911 Q 167.981 71.226 171.779 69.082 Q 175.578 66.939 180.241 66.939 Q 184.753 66.939 187.235 69.12 Q 189.717 71.301 189.717 75.588 Q 189.717 77.769 188.815 77.769 L 170.463 77.845 Q 170.388 78.522 170.388 79.875 Q 170.388 86.494 173.434 90.367 Q 176.48 94.241 182.121 94.241 Q 184.227 94.241 185.656 93.752 Q 187.085 93.263 189.492 91.985 Z  M 177.533 68.443 Q 174.75 68.443 172.983 70.587 Q 171.215 72.73 170.614 76.491 L 182.647 76.265 Q 182.497 68.443 177.533 68.443 Z " fill-rule="evenodd" fill="rgb(0,0,0)"/><path d=" M 215.267 91.909 L 215.418 91.834 L 215.418 91.834 Q 215.643 91.834 215.831 92.135 L 215.831 92.135 L 215.831 92.135 Q 216.019 92.436 215.794 92.586 L 215.794 92.586 L 215.794 92.586 Q 213.011 95.219 210.529 96.384 L 210.529 96.384 L 210.529 96.384 Q 208.047 97.55 205.264 97.55 L 205.264 97.55 L 205.264 97.55 Q 202.03 97.55 199.811 96.008 L 199.811 96.008 L 199.811 96.008 Q 197.592 94.467 197.592 90.856 L 197.592 90.856 L 197.592 73.858 L 197.592 73.858 Q 197.592 71.376 196.803 70.549 L 196.803 70.549 L 196.803 70.549 Q 196.013 69.722 193.757 69.722 L 193.757 69.722 L 193.757 69.722 Q 193.681 69.722 193.569 69.534 L 193.569 69.534 L 193.569 69.534 Q 193.456 69.346 193.456 69.12 L 193.456 69.12 L 193.456 69.12 Q 193.456 68.894 193.569 68.706 L 193.569 68.706 L 193.569 68.706 Q 193.681 68.518 193.757 68.518 L 193.757 68.518 L 193.757 68.518 Q 200.826 68.218 202.632 62.426 L 202.632 62.426 L 202.632 62.426 Q 202.782 62.125 203.271 62.125 L 203.271 62.125 L 203.271 62.125 Q 203.76 62.125 203.76 62.426 L 203.76 62.426 L 203.76 68.368 L 203.76 68.368 Q 207.295 68.293 213.763 67.616 L 213.763 67.616 L 213.763 67.616 Q 213.913 67.616 214.101 68.18 L 214.101 68.18 L 214.101 68.18 Q 214.289 68.744 214.289 69.421 L 214.289 69.421 L 214.289 69.421 Q 214.289 70.098 214.026 70.775 L 214.026 70.775 L 214.026 70.775 Q 213.763 71.452 213.462 71.376 L 213.462 71.376 L 213.462 71.376 Q 209.25 70.399 203.76 70.173 L 203.76 70.173 L 203.76 88.374 L 203.76 88.374 Q 203.76 91.308 205.226 92.699 L 205.226 92.699 L 205.226 92.699 Q 206.693 94.09 209.325 94.09 L 209.325 94.09 L 209.325 94.09 Q 212.484 94.09 215.267 91.909 L 215.267 91.909 Z " fill="rgb(0,0,0)"/><path d=" M 224.12 71.527 L 224.12 71.527 Q 224.12 73.858 225.737 75.438 L 225.737 75.438 L 225.737 75.438 Q 227.354 77.017 230.438 78.747 L 230.438 78.747 L 230.438 78.747 Q 233.145 80.251 234.612 81.229 L 234.612 81.229 L 234.612 81.229 Q 236.079 82.207 237.169 83.862 L 237.169 83.862 L 237.169 83.862 Q 238.26 85.516 238.26 87.848 L 238.26 87.848 L 238.26 87.848 Q 238.26 90.405 236.981 92.586 L 236.981 92.586 L 236.981 92.586 Q 235.703 94.767 233.183 96.121 L 233.183 96.121 L 233.183 96.121 Q 230.663 97.475 227.204 97.475 L 227.204 97.475 L 227.204 97.475 Q 223.067 97.475 219.607 95.369 L 219.607 95.369 L 219.607 95.369 Q 219.156 94.918 219.156 94.467 L 219.156 94.467 L 219.006 87.547 L 219.006 87.547 Q 219.006 87.321 219.419 87.284 L 219.419 87.284 L 219.419 87.284 Q 219.833 87.246 219.908 87.397 L 219.908 87.397 L 219.908 87.397 Q 221.187 91.157 223.781 93.564 L 223.781 93.564 L 223.781 93.564 Q 226.376 95.971 229.31 95.971 L 229.31 95.971 L 229.31 95.971 Q 231.19 95.971 232.243 94.993 L 232.243 94.993 L 232.243 94.993 Q 233.296 94.015 233.296 92.06 L 233.296 92.06 L 233.296 92.06 Q 233.296 89.202 231.641 87.509 L 231.641 87.509 L 231.641 87.509 Q 229.986 85.817 226.828 84.162 L 226.828 84.162 L 226.828 84.162 Q 224.27 82.809 222.841 81.869 L 222.841 81.869 L 222.841 81.869 Q 221.412 80.928 220.397 79.311 L 220.397 79.311 L 220.397 79.311 Q 219.382 77.694 219.382 75.287 L 219.382 75.287 L 219.382 75.287 Q 219.382 71 222.503 68.894 L 222.503 68.894 L 222.503 68.894 Q 225.624 66.789 230.062 66.789 L 230.062 66.789 L 230.062 66.789 Q 232.995 66.789 236.079 67.917 L 236.079 67.917 L 236.079 67.917 Q 236.756 68.218 236.756 68.744 L 236.756 68.744 L 236.756 68.744 Q 236.756 70.474 236.68 71.452 L 236.68 71.452 L 236.605 75.062 L 236.605 75.062 Q 236.605 75.287 236.154 75.287 L 236.154 75.287 L 236.154 75.287 Q 235.703 75.287 235.703 75.062 L 235.703 75.062 L 235.703 75.062 Q 235.703 73.558 234.499 71.941 L 234.499 71.941 L 234.499 71.941 Q 233.296 70.323 231.415 69.271 L 231.415 69.271 L 231.415 69.271 Q 229.535 68.218 227.58 68.218 L 227.58 68.218 L 227.58 68.218 Q 224.12 68.218 224.12 71.527 L 224.12 71.527 Z " fill="rgb(0,0,0)"/><path d=" M 257.567 97.55 L 257.567 97.55 Q 252.678 97.55 249.256 95.407 L 249.256 95.407 L 249.256 95.407 Q 245.834 93.263 244.179 89.841 L 244.179 89.841 L 244.179 89.841 Q 242.525 86.419 242.525 82.658 L 242.525 82.658 L 242.525 82.658 Q 242.525 77.92 245.082 74.347 L 245.082 74.347 L 245.082 74.347 Q 247.639 70.775 251.663 68.857 L 251.663 68.857 L 251.663 68.857 Q 255.687 66.939 259.823 66.939 L 259.823 66.939 L 259.823 66.939 Q 263.358 66.939 266.216 68.368 L 266.216 68.368 L 266.216 68.368 Q 269.074 69.797 269.074 72.204 L 269.074 72.204 L 269.074 72.204 Q 269.074 73.482 268.097 74.423 L 268.097 74.423 L 268.097 74.423 Q 267.119 75.363 265.389 75.363 L 265.389 75.363 L 265.389 75.363 Q 262.531 75.363 261.252 71.978 L 261.252 71.978 L 261.252 71.978 Q 260.5 70.098 259.673 69.308 L 259.673 69.308 L 259.673 69.308 Q 258.846 68.518 257.041 68.518 L 257.041 68.518 L 257.041 68.518 Q 253.506 68.518 251.437 71.715 L 251.437 71.715 L 251.437 71.715 Q 249.369 74.911 249.369 80.251 L 249.369 80.251 L 249.369 80.251 Q 249.369 86.494 252.265 90.367 L 252.265 90.367 L 252.265 90.367 Q 255.16 94.241 261.328 94.241 L 261.328 94.241 L 261.328 94.241 Q 263.434 94.241 265.088 93.714 L 265.088 93.714 L 265.088 93.714 Q 266.743 93.188 268.698 92.06 L 268.698 92.06 L 268.774 92.06 L 268.774 92.06 Q 268.999 92.06 269.187 92.285 L 269.187 92.285 L 269.187 92.285 Q 269.375 92.511 269.225 92.661 L 269.225 92.661 L 269.225 92.661 Q 266.442 95.143 263.734 96.347 L 263.734 96.347 L 263.734 96.347 Q 261.027 97.55 257.567 97.55 L 257.567 97.55 Z " fill="rgb(0,0,0)"/><path d=" M 306.185 96.745 L 306.185 96.745 Q 306.485 96.745 306.485 97.196 L 306.485 97.196 L 306.485 97.196 Q 306.485 97.648 306.185 97.648 L 306.185 97.648 L 306.185 97.648 Q 304.304 97.648 303.176 97.572 L 303.176 97.572 L 298.889 97.497 L 294.602 97.572 L 294.602 97.572 Q 293.474 97.648 291.594 97.648 L 291.594 97.648 L 291.594 97.648 Q 291.368 97.648 291.368 97.196 L 291.368 97.196 L 291.368 97.196 Q 291.368 96.745 291.594 96.745 L 291.594 96.745 L 291.594 96.745 Q 294.076 96.745 294.978 95.655 L 294.978 95.655 L 294.978 95.655 Q 295.881 94.564 295.881 91.556 L 295.881 91.556 L 295.881 80.349 L 295.881 80.349 Q 295.881 72.076 289.412 72.076 L 289.412 72.076 L 289.412 72.076 Q 287.382 72.076 285.313 73.016 L 285.313 73.016 L 285.313 73.016 Q 283.245 73.956 281.666 75.535 L 281.666 75.535 L 281.666 91.556 L 281.666 91.556 Q 281.666 94.639 282.53 95.692 L 282.53 95.692 L 282.53 95.692 Q 283.395 96.745 285.953 96.745 L 285.953 96.745 L 285.953 96.745 Q 286.253 96.745 286.253 97.196 L 286.253 97.196 L 286.253 97.196 Q 286.253 97.648 285.953 97.648 L 285.953 97.648 L 285.953 97.648 Q 284.072 97.648 282.944 97.572 L 282.944 97.572 L 278.657 97.497 L 274.37 97.572 L 274.37 97.572 Q 273.242 97.648 271.361 97.648 L 271.361 97.648 L 271.361 97.648 Q 271.136 97.648 271.136 97.196 L 271.136 97.196 L 271.136 97.196 Q 271.136 96.745 271.361 96.745 L 271.361 96.745 L 271.361 96.745 Q 273.844 96.745 274.746 95.655 L 274.746 95.655 L 274.746 95.655 Q 275.649 94.564 275.649 91.556 L 275.649 91.556 L 275.649 53.122 L 275.649 53.122 Q 275.649 50.49 275.122 49.324 L 275.122 49.324 L 275.122 49.324 Q 274.596 48.158 273.392 48.158 L 273.392 48.158 L 273.392 48.158 Q 272.264 48.158 270.309 49.061 L 270.309 49.061 L 270.233 49.061 L 270.233 49.061 Q 270.008 49.061 269.82 48.647 L 269.82 48.647 L 269.82 48.647 Q 269.632 48.233 269.857 48.158 L 269.857 48.158 L 280.312 43.194 L 280.688 43.119 L 280.688 43.119 Q 280.989 43.119 281.327 43.42 L 281.327 43.42 L 281.327 43.42 Q 281.666 43.721 281.666 43.946 L 281.666 43.946 L 281.666 74.031 L 281.666 74.031 Q 287.081 67.789 293.173 67.789 L 293.173 67.789 L 293.173 67.789 Q 297.31 67.789 299.604 70.271 L 299.604 70.271 L 299.604 70.271 Q 301.898 72.753 301.898 77.04 L 301.898 77.04 L 301.898 91.556 L 301.898 91.556 Q 301.898 94.639 302.762 95.692 L 302.762 95.692 L 302.762 95.692 Q 303.627 96.745 306.185 96.745 L 306.185 96.745 Z " fill="rgb(0,0,0)"/><path d=" M -25.242 84.477 L -25.242 84.477 Q -25.242 89.711 -22.438 92.578 L -22.438 92.578 L -22.438 92.578 Q -19.633 95.445 -14.565 95.445 L -14.565 95.445 L -14.565 95.445 Q -9.497 95.445 -6.692 92.578 L -6.692 92.578 L -6.692 92.578 Q -3.888 89.711 -3.888 84.477 L -3.888 84.477 L -3.888 67.111 L -3.057 67.111 L -3.057 84.477 L -3.057 84.477 Q -3.057 90.127 -6.069 93.201 L -6.069 93.201 L -6.069 93.201 Q -9.081 96.276 -14.565 96.276 L -14.565 96.276 L -14.565 96.276 Q -20.049 96.276 -23.061 93.201 L -23.061 93.201 L -23.061 93.201 Q -26.073 90.127 -26.073 84.477 L -26.073 84.477 L -26.073 67.111 L -25.242 67.111 L -25.242 84.477 Z  M 17.265 67.111 L 17.265 67.111 Q 21.295 67.111 24.702 69.064 L 24.702 69.064 L 24.702 69.064 Q 28.108 71.016 30.123 74.361 L 30.123 74.361 L 30.123 74.361 Q 32.138 77.705 32.138 81.652 L 32.138 81.652 L 32.138 81.652 Q 32.138 85.557 30.123 88.901 L 30.123 88.901 L 30.123 88.901 Q 28.108 92.246 24.702 94.198 L 24.702 94.198 L 24.702 94.198 Q 21.295 96.151 17.265 96.151 L 17.265 96.151 L 5.84 96.151 L 5.84 67.111 L 17.265 67.111 Z  M 17.265 95.32 L 17.265 95.32 Q 21.046 95.32 24.286 93.471 L 24.286 93.471 L 24.286 93.471 Q 27.527 91.623 29.417 88.486 L 29.417 88.486 L 29.417 88.486 Q 31.307 85.349 31.307 81.652 L 31.307 81.652 L 31.307 81.652 Q 31.307 77.954 29.417 74.797 L 29.417 74.797 L 29.417 74.797 Q 27.527 71.639 24.286 69.791 L 24.286 69.791 L 24.286 69.791 Q 21.046 67.942 17.265 67.942 L 17.265 67.942 L 6.671 67.942 L 6.671 95.32 L 17.265 95.32 Z  M 40.523 96.151 L 40.523 67.111 L 41.354 67.111 L 41.354 96.151 L 40.523 96.151 Z  M 63.664 66.945 L 63.664 66.945 Q 67.694 66.945 71.121 68.918 L 71.121 68.918 L 71.121 68.918 Q 74.549 70.892 76.563 74.257 L 76.563 74.257 L 76.563 74.257 Q 78.578 77.622 78.578 81.569 L 78.578 81.569 L 78.578 81.569 Q 78.578 85.515 76.563 88.901 L 76.563 88.901 L 76.563 88.901 Q 74.549 92.287 71.121 94.281 L 71.121 94.281 L 71.121 94.281 Q 67.694 96.276 63.664 96.276 L 63.664 96.276 L 63.664 96.276 Q 59.634 96.276 56.207 94.281 L 56.207 94.281 L 56.207 94.281 Q 52.779 92.287 50.764 88.901 L 50.764 88.901 L 50.764 88.901 Q 48.749 85.515 48.749 81.569 L 48.749 81.569 L 48.749 81.569 Q 48.749 77.622 50.764 74.257 L 50.764 74.257 L 50.764 74.257 Q 52.779 70.892 56.207 68.918 L 56.207 68.918 L 56.207 68.918 Q 59.634 66.945 63.664 66.945 L 63.664 66.945 Z  M 63.664 67.776 L 63.664 67.776 Q 59.883 67.776 56.643 69.645 L 56.643 69.645 L 56.643 69.645 Q 53.402 71.515 51.491 74.693 L 51.491 74.693 L 51.491 74.693 Q 49.58 77.871 49.58 81.569 L 49.58 81.569 L 49.58 81.569 Q 49.58 85.308 51.491 88.507 L 51.491 88.507 L 51.491 88.507 Q 53.402 91.706 56.643 93.575 L 56.643 93.575 L 56.643 93.575 Q 59.883 95.445 63.664 95.445 L 63.664 95.445 L 63.664 95.445 Q 67.444 95.445 70.685 93.575 L 70.685 93.575 L 70.685 93.575 Q 73.925 91.706 75.836 88.507 L 75.836 88.507 L 75.836 88.507 Q 77.747 85.308 77.747 81.569 L 77.747 81.569 L 77.747 81.569 Q 77.747 77.871 75.836 74.693 L 75.836 74.693 L 75.836 74.693 Q 73.925 71.515 70.685 69.645 L 70.685 69.645 L 70.685 69.645 Q 67.444 67.776 63.664 67.776 L 63.664 67.776 Z  M -59.414 69.728 L -59.414 69.728 Q -60.827 68.814 -62.8 68.295 L -62.8 68.295 L -62.8 68.295 Q -64.774 67.776 -66.726 67.776 L -66.726 67.776 L -66.726 67.776 Q -70.548 67.776 -72.854 69.334 L -72.854 69.334 L -72.854 69.334 Q -75.16 70.892 -75.16 73.467 L -75.16 73.467 L -75.16 73.467 Q -75.16 75.711 -74.038 77.082 L -74.038 77.082 L -74.038 77.082 Q -72.916 78.453 -71.275 79.18 L -71.275 79.18 L -71.275 79.18 Q -69.634 79.907 -66.809 80.779 L -66.809 80.779 L -66.809 80.779 Q -63.818 81.693 -62.032 82.503 L -62.032 82.503 L -62.032 82.503 Q -60.245 83.314 -59.02 84.892 L -59.02 84.892 L -59.02 84.892 Q -57.794 86.471 -57.794 89.047 L -57.794 89.047 L -57.794 89.047 Q -57.794 91.207 -58.999 92.848 L -58.999 92.848 L -58.999 92.848 Q -60.204 94.489 -62.426 95.382 L -62.426 95.382 L -62.426 95.382 Q -64.649 96.276 -67.64 96.276 L -67.64 96.276 L -67.64 96.276 Q -70.382 96.276 -73.062 95.154 L -73.062 95.154 L -73.062 95.154 Q -75.741 94.032 -77.569 92.163 L -77.569 92.163 L -76.988 91.581 L -76.988 91.581 Q -75.326 93.367 -72.792 94.406 L -72.792 94.406 L -72.792 94.406 Q -70.257 95.445 -67.64 95.445 L -67.64 95.445 L -67.64 95.445 Q -63.527 95.445 -61.076 93.7 L -61.076 93.7 L -61.076 93.7 Q -58.625 91.955 -58.625 89.047 L -58.625 89.047 L -58.625 89.047 Q -58.625 86.762 -59.767 85.37 L -59.767 85.37 L -59.767 85.37 Q -60.91 83.978 -62.572 83.21 L -62.572 83.21 L -62.572 83.21 Q -64.233 82.441 -67.1 81.569 L -67.1 81.569 L -67.1 81.569 Q -70.05 80.655 -71.815 79.845 L -71.815 79.845 L -71.815 79.845 Q -73.581 79.034 -74.786 77.497 L -74.786 77.497 L -74.786 77.497 Q -75.991 75.96 -75.991 73.426 L -75.991 73.426 L -75.991 73.426 Q -75.991 70.476 -73.456 68.711 L -73.456 68.711 L -73.456 68.711 Q -70.922 66.945 -66.726 66.945 L -66.726 66.945 L -66.726 66.945 Q -64.69 66.945 -62.592 67.527 L -62.592 67.527 L -62.592 67.527 Q -60.494 68.108 -58.999 69.064 L -58.999 69.064 L -59.414 69.728 Z  M -53.026 67.942 L -53.026 67.111 L -32.254 67.111 L -32.254 67.942 L -42.224 67.942 L -42.224 83.949 L -42.224 96.151 L -43.055 96.151 L -43.055 67.942 L -53.026 67.942 Z " fill-rule="evenodd" fill="rgb(0,0,0)" vector-effect="non-scaling-stroke" stroke-width="0.605" stroke="rgb(0,0,0)" stroke-linejoin="miter" stroke-linecap="square" stroke-miterlimit="3"/></svg>